<?xml version="1.0" ?><!DOCTYPE svg  PUBLIC '-//W3C//DTD SVG 1.1//EN'  'http://www.w3.org/Graphics/SVG/1.1/DTD/svg11.dtd'><svg height="8.4666mm" style="shape-rendering:geometricPrecision; text-rendering:geometricPrecision; image-rendering:optimizeQuality; fill-rule:evenodd; clip-rule:evenodd" version="1.1" viewBox="0 0 846.66 846.66" width="8.4666mm" xml:space="preserve" xmlns="http://www.w3.org/2000/svg" xmlns:xlink="http://www.w3.org/1999/xlink"><defs><style type="text/css">
   <![CDATA[
    .fil0 {fill:#232329;fill-rule:nonzero}
   ]]>
  </style></defs><g id="Layer_x0020_1"><path class="fil0" d="M423.33 83.96c46.6,0 62.66,122.56 68.41,180.24l239.91 62.85c5.2,1.34 9.34,4.69 11.83,8.99l0.02 -0.01 36.48 63.18c6.86,11.86 -0.46,26.98 -14.34,28.79l-267.04 37.04 -2.32 58.67 137.14 130.09c5.29,5.03 7.09,12.34 5.34,18.93l0.02 0.01 -18.94 70.67c-2.86,10.68 -13.69,16.78 -25.09,13.2l-129.85 -35.59c-7.73,20.14 -19.99,41.68 -41.57,41.68 -64.33,0 -73.79,-230.59 -75.32,-297.67l-266.99 -37.03c-13.88,-1.81 -21.2,-16.93 -14.34,-28.79l36.48 -63.18 0.02 0.01c2.49,-4.3 6.63,-7.65 11.83,-8.99l239.91 -62.85c5.75,-57.68 21.81,-180.24 68.41,-180.24zm-75.79 342.09l3.95 -121.15 -218.98 57.37 -18.15 31.44 233.18 32.34zm147.63 -121.15l3.95 121.15 233.18 -32.34 -18.15 -31.44 -218.98 -57.37zm-50.92 -104.57c-8.47,-48.03 -16.12,-77.74 -20.92,-77.74 -4.8,0 -12.45,29.71 -20.92,77.74 -21.66,122.75 -21.66,323.25 0,446 8.47,48.03 16.12,77.74 20.92,77.74 1.87,0 -2.19,-0.91 -1.1,-2.62 3.97,-6.24 7.91,-16.13 11.72,-29.15 2.92,-10.06 13.39,-15.97 23.54,-13.2l130.09 35.65 10.96 -40.92 -134.81 -127.88c-4.3,-3.8 -6.86,-9.48 -6.47,-15.65 6.76,-107.33 3.21,-238.06 -13.01,-329.97z"/></g></svg>